<?xml version="1.0" standalone="no"?>
<!DOCTYPE svg PUBLIC "-//W3C//DTD SVG 20010904//EN"
 "http://www.w3.org/TR/2001/REC-SVG-20010904/DTD/svg10.dtd">
<svg version="1.0" xmlns="http://www.w3.org/2000/svg"
 width="1097.000000pt" height="1280.000000pt" viewBox="0 0 1097.000000 1280.000000"
 preserveAspectRatio="xMidYMid meet">
<metadata>
Created by potrace 1.15, written by Peter Selinger 2001-2017
</metadata>
<g transform="translate(0.000000,1280.000000) scale(0.100000,-0.100000)"
fill="#000000" stroke="none">
<path d="M6427 12271 c-37 -9 -65 -20 -61 -23 3 -4 -11 -14 -31 -22 -45 -19
-48 -19 -39 -3 5 8 2 7 -9 -2 -10 -8 -15 -16 -13 -19 7 -7 -23 -62 -34 -62 -5
0 -12 -9 -15 -20 -5 -15 -14 -20 -33 -18 -35 2 -52 -8 -52 -33 0 -23 -13 -25
-31 -3 -33 40 -91 58 -184 58 -79 0 -98 -3 -146 -27 -35 -17 -72 -27 -99 -27
-27 0 -67 -11 -107 -30 -69 -33 -77 -35 -68 -20 10 15 2 12 -35 -15 -19 -14
-40 -23 -48 -20 -8 3 -10 0 -6 -7 5 -8 2 -9 -10 -5 -10 4 -24 -1 -36 -13 -11
-11 -30 -20 -42 -20 -13 -1 -40 -7 -60 -14 -21 -8 -38 -12 -38 -10 0 6 45 28
75 35 l30 7 -31 1 c-44 1 -166 -83 -156 -108 1 -3 -4 -6 -10 -6 -23 0 -76
-118 -102 -225 -14 -58 -35 -155 -46 -217 -11 -61 -27 -133 -35 -160 -19 -61
-18 -89 1 -43 11 28 13 30 9 8 -3 -16 -3 -28 -1 -28 9 0 57 161 86 289 30 137
81 268 100 256 5 -3 8 0 5 7 -6 14 64 93 73 83 3 -3 -2 -13 -11 -22 -21 -25
-85 -167 -104 -233 -12 -41 -16 -111 -18 -270 -2 -201 -3 -217 -23 -250 -12
-19 -22 -39 -22 -45 1 -5 10 7 20 27 30 55 38 54 46 -8 4 -39 9 -52 16 -43 6
9 7 1 3 -24 -5 -29 -3 -37 6 -31 9 5 10 -1 7 -21 -6 -30 52 -227 75 -255 7 -8
19 -33 26 -55 15 -44 81 -185 81 -172 0 4 -7 24 -16 45 -27 64 -34 82 -29 82
10 0 40 -70 71 -165 18 -55 33 -95 33 -90 1 29 -41 191 -69 259 -29 74 -80
263 -80 296 0 13 1 13 10 0 5 -8 10 -25 10 -38 0 -12 5 -21 11 -20 21 5 103
-157 186 -367 30 -77 70 -176 88 -220 76 -182 76 -180 57 -206 -40 -59 -209
-203 -335 -286 -53 -35 -95 -68 -92 -72 2 -5 -5 -17 -18 -27 l-22 -19 20 24
c15 17 16 23 5 19 -8 -2 -29 -28 -47 -57 -54 -90 -57 -219 -7 -311 26 -48 26
-51 14 -112 -7 -35 -21 -76 -31 -93 -20 -34 -23 -111 -13 -307 5 -98 3 -118
-8 -118 -24 0 -140 -50 -193 -83 -66 -41 -105 -77 -105 -98 0 -10 -21 -35 -46
-56 -78 -65 -214 -203 -214 -218 0 -19 28 -45 49 -45 10 0 41 18 71 40 29 22
55 39 56 37 2 -1 -3 -23 -11 -47 -34 -106 -45 -151 -40 -160 13 -21 78 -11
106 16 38 36 106 39 132 7 10 -13 29 -23 42 -23 13 0 34 10 46 23 12 13 19 16
17 7 -9 -26 11 -50 42 -50 22 0 35 9 57 40 15 22 31 40 34 40 7 0 29 -71 29
-94 0 -9 5 -25 11 -35 10 -15 5 -28 -28 -77 -23 -32 -72 -97 -109 -144 -38
-47 -97 -130 -131 -185 -53 -88 -163 -215 -185 -215 -11 0 -107 -47 -150 -73
-20 -12 -59 -35 -87 -51 -29 -17 -54 -39 -60 -55 -5 -14 -12 -73 -16 -130 -5
-89 -3 -119 16 -199 18 -75 27 -95 44 -102 11 -4 27 -15 34 -24 25 -30 59 -8
45 29 -4 9 0 15 9 15 36 0 28 49 -18 100 -36 40 -40 75 -10 94 34 22 35 21 35
-23 0 -55 35 -133 57 -129 19 4 21 27 8 103 -4 25 -1 55 7 79 14 42 47 64 158
106 75 28 182 125 220 199 52 101 97 164 196 273 l98 106 75 -111 c74 -112
121 -175 172 -232 l27 -30 -18 -135 c-13 -96 -25 -148 -41 -180 -20 -38 -23
-57 -21 -125 1 -44 9 -106 17 -138 20 -78 19 -96 -7 -125 -21 -22 -23 -32 -21
-130 2 -59 2 -244 1 -412 -1 -265 -3 -306 -16 -316 -15 -11 -14 -26 7 -160 13
-82 25 -156 28 -164 3 -8 9 -181 13 -385 l8 -370 50 -255 c28 -140 58 -300 67
-355 9 -55 25 -134 35 -176 15 -59 23 -151 35 -425 23 -544 23 -560 1 -574
-18 -11 -19 -21 -12 -144 5 -99 10 -134 21 -142 8 -6 15 -23 15 -37 0 -23 -6
-27 -57 -37 -80 -17 -164 -61 -185 -98 -21 -35 -23 -80 -7 -116 14 -29 18 -31
124 -60 l80 -21 0 -63 c0 -38 5 -65 12 -70 17 -10 -2 -245 -22 -275 -9 -14
-19 -90 -29 -215 -9 -106 -18 -197 -20 -201 -3 -4 -19 -57 -35 -117 -36 -133
-153 -409 -189 -447 -15 -16 -64 -46 -108 -68 -107 -51 -164 -111 -164 -175 0
-92 56 -136 212 -170 108 -23 277 -12 337 23 72 42 119 91 201 212 81 119 198
266 207 258 2 -3 -3 -59 -11 -125 -18 -136 -20 -218 -7 -227 15 -8 18 2 41
135 36 207 67 317 116 406 46 85 54 123 29 144 -8 7 -15 28 -15 47 0 44 -24
101 -58 136 -14 15 -27 38 -28 50 0 12 -12 56 -25 97 -42 131 -30 354 33 620
48 206 68 303 68 337 0 17 4 34 9 37 17 11 60 -13 66 -36 3 -13 -3 -85 -15
-161 -11 -76 -20 -140 -20 -143 0 -2 7 -4 15 -4 8 0 15 2 15 4 0 3 9 54 20
113 31 163 67 280 111 362 36 67 38 75 24 91 -9 10 -15 35 -15 62 0 35 -8 58
-39 106 -22 33 -40 69 -39 79 0 10 -14 59 -32 108 -32 88 -33 92 -26 210 3 66
17 174 31 240 47 222 68 394 54 432 -4 10 0 79 8 153 19 176 12 397 -17 545
-28 146 -65 291 -94 370 -14 38 -19 68 -14 73 5 5 1 24 -12 45 -42 70 -63 202
-41 245 16 29 41 148 41 194 0 24 11 101 25 172 14 71 36 206 50 300 20 133
30 175 46 192 34 37 42 215 14 327 -9 33 11 199 32 271 8 28 34 85 58 126 56
96 80 158 100 256 8 44 25 101 36 127 13 30 17 56 13 70 -4 12 -6 38 -5 58 4
65 -19 162 -59 244 -37 76 -132 205 -151 205 -5 0 -33 15 -62 34 -28 18 -103
61 -164 96 -62 34 -113 66 -113 71 0 6 -23 33 -51 61 -89 89 -109 123 -109
188 0 62 21 144 45 175 44 58 85 130 85 149 1 35 16 -1 30 -69 13 -67 52 -196
57 -191 2 2 -7 46 -21 97 -13 52 -27 126 -30 164 -7 87 -2 76 22 -45 21 -100
92 -353 99 -347 2 2 -5 51 -16 108 -11 57 -29 165 -41 239 -12 74 -24 137 -26
139 -2 2 10 21 27 42 17 21 27 44 24 49 -4 6 -1 19 7 28 21 25 95 145 138 225
l38 69 7 -96 c4 -53 4 -135 1 -183 -4 -66 -3 -77 4 -43 5 25 9 90 10 145 1 55
5 127 9 160 l6 60 7 -99 c10 -157 -16 -341 -67 -463 -30 -70 -7 -42 28 36 91
198 129 476 92 662 -22 114 -16 158 9 64 13 -46 21 -117 24 -207 3 -115 1
-153 -18 -239 -24 -115 -58 -215 -102 -304 -17 -33 -23 -53 -15 -45 27 26 77
137 102 222 50 173 60 244 60 426 0 118 3 168 10 160 6 -7 22 -22 35 -33 l25
-20 -21 25 c-29 36 -54 77 -54 92 0 9 3 9 12 0 7 -7 26 -12 43 -12 l30 0 -32
20 c-60 36 -68 66 -65 235 2 98 -3 197 -14 285 -15 129 -14 376 4 404 3 5 5
33 4 60 -2 28 1 65 6 81 l9 30 12 -37 c7 -20 19 -42 29 -50 14 -12 14 -10 -1
12 -21 30 -22 50 -2 50 21 0 19 13 -5 28 -17 10 -20 23 -20 80 0 40 5 73 12
80 9 9 9 15 0 24 -15 15 -16 78 -2 78 6 0 13 -7 16 -15 10 -25 24 -17 24 13 0
19 -7 30 -22 37 -21 9 -23 17 -23 75 1 36 5 124 10 195 11 157 11 182 3 263
l-6 62 27 0 c26 0 33 -10 101 -152 40 -84 76 -155 79 -158 25 -18 79 -214 81
-290 0 -13 1 -13 10 0 8 11 9 8 4 -12 -3 -15 -1 -58 5 -95 6 -37 15 -144 22
-238 17 -262 35 -425 69 -603 16 -90 30 -176 31 -190 l1 -27 8 25 c5 16 7 -2
5 -50 -3 -53 -2 -63 4 -35 8 45 12 -11 31 -475 16 -376 23 -455 49 -532 29
-88 102 -198 187 -285 37 -37 60 -59 51 -48 -37 49 -146 214 -165 251 -31 62
-50 149 -55 259 -3 90 -2 97 9 68 8 -18 16 -58 20 -90 12 -119 74 -259 172
-389 96 -126 123 -143 49 -29 -81 124 -137 230 -137 258 -1 12 -7 33 -15 47
-8 14 -14 32 -14 40 0 11 2 11 6 2 10 -25 99 -102 148 -127 52 -28 40 -13 -15
17 -17 10 -29 22 -26 26 3 5 -6 20 -20 33 -40 37 -82 102 -97 150 -16 51 -22
181 -12 242 l7 41 24 -47 c14 -26 27 -47 30 -47 2 0 0 9 -6 19 -5 11 -15 32
-20 48 -9 26 -9 27 5 9 8 -11 15 -23 15 -28 0 -13 71 -120 77 -115 2 3 -3 20
-13 39 -11 20 -17 54 -16 88 1 74 21 255 33 305 6 22 15 60 19 85 9 46 14 72
49 265 61 344 51 681 -33 1130 -31 162 -63 288 -83 328 -19 38 -9 47 11 10 8
-15 15 -23 16 -17 0 6 -12 29 -27 50 -24 35 -73 136 -73 150 0 15 101 -81 106
-100 3 -13 12 -23 20 -23 12 0 12 3 0 16 -25 29 -67 122 -60 134 5 9 4 9 -5 1
-10 -9 -10 -17 -1 -34 18 -34 7 -33 -33 2 -26 24 -51 66 -87 148 l-50 115 34
-37 c19 -20 53 -71 76 -112 23 -42 46 -76 51 -76 6 0 2 12 -9 28 -26 38 -34
52 -28 52 10 0 71 -93 71 -108 0 -10 5 -16 12 -15 6 2 25 -15 42 -36 32 -40
39 -57 19 -45 -7 5 -8 3 -4 -5 5 -7 11 -10 14 -7 7 7 32 -13 32 -26 0 -6 -8
-4 -17 3 -16 13 -17 12 -5 -3 8 -10 19 -16 24 -15 6 1 13 -4 16 -12 3 -9 0
-11 -8 -6 -9 5 -11 4 -6 -4 4 -6 11 -9 16 -6 12 7 65 -86 86 -150 9 -27 21
-54 26 -60 5 -5 4 3 -2 19 -14 38 -6 45 10 7 6 -16 9 -35 4 -42 -4 -8 -3 -10
4 -5 7 4 12 2 12 -5 0 -7 2 -10 6 -7 5 5 -35 157 -59 221 -5 16 -34 65 -64
109 -58 87 -67 115 -13 43 18 -24 36 -42 40 -40 12 8 87 -79 113 -132 14 -26
34 -59 46 -73 11 -14 0 13 -24 60 -33 61 -68 108 -125 165 -55 56 -106 123
-169 224 -50 80 -91 148 -91 153 0 5 12 1 28 -10 43 -30 60 -36 29 -10 -87 72
-115 102 -144 152 -33 59 -33 68 1 39 30 -26 -99 121 -169 192 -54 54 -54 55
-5 3 62 -67 58 -78 -7 -18 -24 23 -47 39 -51 36 -5 -3 -21 6 -38 20 -16 14
-22 23 -14 19 8 -4 6 1 -5 10 -48 41 -172 76 -259 74 -23 0 -72 -8 -109 -18z
m111 2 c-10 -2 -26 -2 -35 0 -10 3 -2 5 17 5 19 0 27 -2 18 -5z m-118 -23 c-8
-5 -22 -9 -30 -9 -10 0 -8 3 5 9 27 12 43 12 25 0z m346 -26 c18 -14 18 -14
-6 -3 -31 14 -36 19 -24 19 6 0 19 -7 30 -16z m-286 -74 c-8 -5 -22 -9 -30 -9
-10 0 -8 3 5 9 27 12 43 12 25 0z m498 -103 c56 -59 75 -84 55 -75 -5 2 -46
43 -93 92 -47 49 -71 80 -55 69 17 -12 58 -50 93 -86z m103 -184 c13 -16 12
-17 -3 -4 -17 13 -22 21 -14 21 2 0 10 -8 17 -17z m-625 -75 c42 -66 108 -207
101 -214 -17 -17 -54 15 -66 57 -20 66 -55 129 -100 179 -23 25 -41 49 -41 53
0 19 85 -41 106 -75z m145 35 c13 -16 12 -17 -3 -4 -10 7 -18 15 -18 17 0 8 8
3 21 -13z m529 -38 c0 -11 -14 7 -31 40 -7 13 -3 12 10 -5 11 -14 21 -29 21
-35z m100 -150 c-1 -11 -27 20 -41 50 -6 11 1 7 15 -10 14 -16 26 -34 26 -40z
m42 -57 c12 -17 17 -28 10 -25 -6 4 -21 22 -34 39 -12 17 -17 28 -10 25 6 -4
21 -22 34 -39z m173 -339 c9 -17 15 -33 13 -35 -3 -2 -12 12 -21 31 -21 43
-13 47 8 4z m-270 -76 c29 -81 75 -275 74 -308 0 -11 -5 -5 -10 15 -6 19 -28
103 -50 185 -22 83 -42 158 -45 168 -3 9 -3 17 -1 17 2 0 17 -34 32 -77z
m-668 -35 c-3 -7 -5 -2 -5 12 0 14 2 19 5 13 2 -7 2 -19 0 -25z m593 -351 c0
-10 7 -31 15 -48 15 -27 58 -239 51 -246 -2 -2 -15 24 -29 57 -25 56 -49 158
-61 260 -6 43 -5 44 9 20 8 -14 14 -33 15 -43z m217 -139 c-3 -8 -6 -5 -6 6
-1 11 2 17 5 13 3 -3 4 -12 1 -19z m-968 -154 c-5 -6 -5 -15 -1 -19 4 -5 1 -5
-5 -1 -14 8 -18 48 -6 60 11 11 22 -27 12 -40z m-830 -4 c5 -17 6 -28 2 -25
-5 3 -14 19 -20 35 -5 17 -6 28 -2 25 5 -3 14 -19 20 -35z m1641 -180 l54
-105 0 -105 c0 -88 -19 -264 -52 -490 -4 -31 -9 10 -13 125 -3 94 -15 231 -27
305 -22 146 -42 341 -41 405 l0 40 13 -35 c7 -19 37 -82 66 -140z m33 150 c3
-11 1 -18 -4 -14 -5 3 -9 12 -9 20 0 20 7 17 13 -6z m-833 -52 c-1 -40 -2 -42
-15 -24 -16 21 -20 48 -8 59 15 16 23 4 23 -35z m-552 -98 c0 -8 -6 1 -13 20
-7 19 -13 42 -13 50 0 8 6 -1 13 -20 7 -19 13 -42 13 -50z m-139 -45 c0 -11
-9 3 -19 30 -25 62 -25 70 0 25 11 -19 19 -44 19 -55z m-38 -73 c11 -35 19
-66 16 -68 -4 -4 -38 85 -63 166 -14 45 29 -45 47 -98z m1616 -344 c-3 -8 -6
-5 -6 6 -1 11 2 17 5 13 3 -3 4 -12 1 -19z m-17 -99 c-17 -69 -23 -56 -8 16 6
33 13 54 16 47 2 -7 -2 -35 -8 -63z m6 -165 c-19 -93 -26 -103 -26 -41 0 44
27 133 37 123 3 -2 -2 -39 -11 -82z m4 -139 c-16 -95 -21 -162 -18 -221 2 -46
1 -81 -4 -76 -4 4 -19 41 -33 82 -26 76 -35 210 -15 210 6 0 10 12 11 28 0 15
4 36 8 47 13 34 22 -27 17 -113 l-5 -77 14 77 c23 132 37 190 42 184 3 -3 -5
-66 -17 -141z m-803 -157 c-2 -18 -4 -4 -4 32 0 36 2 50 4 33 2 -18 2 -48 0
-65z m10 -75 c-3 -10 -5 -4 -5 12 0 17 2 24 5 18 2 -7 2 -21 0 -30z m803 -458
c11 -13 10 -14 -4 -9 -9 3 -16 10 -16 15 0 13 6 11 20 -6z m-2320 -576 c-12
-23 -24 -39 -26 -36 -7 7 28 77 38 77 5 0 -1 -18 -12 -41z"/>
<path d="M6820 12196 c0 -2 8 -10 18 -17 15 -13 16 -12 3 4 -13 16 -21 21 -21
13z"/>
<path d="M7110 11916 c0 -2 8 -10 18 -17 15 -13 16 -12 3 4 -13 16 -21 21 -21
13z"/>
<path d="M5120 11669 c-7 -11 -10 -23 -7 -25 2 -2 9 7 15 21 14 30 7 33 -8 4z"/>
<path d="M5081 11554 c0 -11 3 -14 6 -6 3 7 2 16 -1 19 -3 4 -6 -2 -5 -13z"/>
<path d="M5071 11514 c0 -11 3 -14 6 -6 3 7 2 16 -1 19 -3 4 -6 -2 -5 -13z"/>
<path d="M7250 11442 c0 -5 12 -19 27 -33 l26 -24 -23 33 c-25 33 -30 38 -30
24z"/>
<path d="M7420 11378 c0 -9 41 -78 46 -78 3 0 -2 12 -10 28 -21 37 -36 58 -36
50z"/>
<path d="M7285 11295 c8 -25 42 -171 48 -205 4 -22 4 -21 6 6 1 36 -33 176
-49 202 -10 15 -11 15 -5 -3z"/>
<path d="M7391 11240 c14 -31 19 -36 19 -24 0 6 -7 19 -16 30 -14 18 -14 18
-3 -6z"/>
<path d="M7360 10938 c0 -6 26 -139 36 -187 3 -13 7 -22 9 -19 5 4 -33 199
-40 206 -3 3 -5 3 -5 0z"/>
<path d="M5271 10754 c0 -11 3 -14 6 -6 3 7 2 16 -1 19 -3 4 -6 -2 -5 -13z"/>
<path d="M5282 10715 c0 -11 3 -29 8 -40 11 -25 11 1 0 35 -6 20 -8 21 -8 5z"/>
<path d="M5301 10634 c0 -11 3 -14 6 -6 3 7 2 16 -1 19 -3 4 -6 -2 -5 -13z"/>
<path d="M7463 10375 c0 -22 2 -30 4 -17 2 12 2 30 0 40 -3 9 -5 -1 -4 -23z"/>
<path d="M7474 10210 c0 -52 1 -74 3 -47 2 26 2 68 0 95 -2 26 -3 4 -3 -48z"/>
<path d="M7463 10065 c0 -27 2 -38 4 -22 2 15 2 37 0 50 -2 12 -4 0 -4 -28z"/>
<path d="M7452 9980 c0 -19 2 -27 5 -17 2 9 2 25 0 35 -3 9 -5 1 -5 -18z"/>
<path d="M7442 9910 c0 -19 2 -27 5 -17 2 9 2 25 0 35 -3 9 -5 1 -5 -18z"/>
<path d="M7432 9850 c0 -14 2 -19 5 -12 2 6 2 18 0 25 -3 6 -5 1 -5 -13z"/>
<path d="M7422 9800 c0 -14 2 -19 5 -12 2 6 2 18 0 25 -3 6 -5 1 -5 -13z"/>
<path d="M7411 9744 c0 -11 3 -14 6 -6 3 7 2 16 -1 19 -3 4 -6 -2 -5 -13z"/>
<path d="M7401 9704 c0 -11 3 -14 6 -6 3 7 2 16 -1 19 -3 4 -6 -2 -5 -13z"/>
<path d="M7391 9654 c0 -11 3 -14 6 -6 3 7 2 16 -1 19 -3 4 -6 -2 -5 -13z"/>
<path d="M7312 9560 c0 -14 2 -19 5 -12 2 6 2 18 0 25 -3 6 -5 1 -5 -13z"/>
<path d="M6993 8995 c0 -27 2 -38 4 -22 2 15 2 37 0 50 -2 12 -4 0 -4 -28z"/>
</g>
</svg>
